# xmcd
#
# Track frame offsets: 
#        150
#        21952
#        43584
#        66336
#        88010
#        111030
#        133709
#        154926
#
# Disc length: 2329 seconds
#
# Revision: 2
# Processed by: cddbd v1.5.2PL0 Copyright (c) Steve Scherf et al.
# Submitted via: ExactAudioCopy v0.99pb5
#
DISCID=69091708
DTITLE=Celenia - No Me Hables Mas De Amor
DYEAR=2003
DGENRE=Latin
TTITLE0=Ay, Amor
TTITLE1=Enamorada De Ti
TTITLE2=Discusión
TTITLE3=Te Quiero
TTITLE4=Y Vete Ya
TTITLE5=No Me Hables Mas De Amor
TTITLE6=Reforéstame
TTITLE7=Hoy Me Dices Adiós
EXTD=
EXTT0=
EXTT1=
EXTT2=
EXTT3=
EXTT4=
EXTT5=
EXTT6=
EXTT7=
PLAYORDER=
